# xmcd CD database file
#
# Track frame offsets:
#	150
#	24582
#	45600
#	66267
#	90610
#	114852
#
# Disc length: 1840 seconds
#
# Revision: 2
# Processed by: cddbd v1.5.1PL0 Copyright (c) Steve Scherf et al.
# Submitted via: CDex 1.51
#
DISCID=44072e06
DTITLE=Bill Evans and Jim Hall - Undercurrent
DYEAR=1962
DGENRE=Jazz
TTITLE0=My Funny Valentine
TTITLE1=I Hear A Rhapsody
TTITLE2=Dream Gypsy
TTITLE3=Romain
TTITLE4=Skating In Central Park
TTITLE5=Darn That Dream
EXTD=YEAR: 1962
EXTT0=
EXTT1=
EXTT2=
EXTT3=
EXTT4=
EXTT5=
PLAYORDER=
